<?xml version="1.0" encoding="utf-8"?>
<svg xmlns="http://www.w3.org/2000/svg">
  <symbol id="arrowdown" viewBox="0 0 24 24">
    <path fill-rule="evenodd" clip-rule="evenodd" d="M11.625 14.3666L19.5615 6.71357C20.0856 6.20813 20.8748 6.27642 21.324 6.8661C21.7733 7.45578 21.7126 8.34354 21.1885 8.84897L12.4385 17.2865C11.9704 17.7378 11.2796 17.7378 10.8115 17.2865L2.06153 8.84897C1.53738 8.34354 1.47667 7.45578 1.92595 6.8661C2.37523 6.27642 3.16435 6.20813 3.68851 6.71357L11.625 14.3666Z" />

  </symbol>
  <symbol id="audio" viewBox="0 0 24 24">
    <path fill-rule="evenodd" clip-rule="evenodd" d="M16.25 6.08333C16.25 3.82817 14.4218 2 12.1667 2C9.9115 2 8.08333 3.82817 8.08333 6.08333V13.2292C8.08333 15.4843 9.9115 17.3125 12.1667 17.3125C14.4218 17.3125 16.25 15.4843 16.25 13.2292V6.08333ZM19.3125 12.2083C18.7487 12.2083 18.2917 12.6654 18.2917 13.2292C18.2917 16.6119 15.5494 19.3542 12.1667 19.3542C8.78392 19.3542 6.04167 16.6119 6.04167 13.2292C6.04167 12.6654 5.58462 12.2083 5.02083 12.2083C4.45704 12.2083 4 12.6654 4 13.2292C4 17.7395 7.65634 21.3958 12.1667 21.3958C16.677 21.3958 20.3333 17.7395 20.3333 13.2292C20.3333 12.6654 19.8763 12.2083 19.3125 12.2083Z" />

  </symbol>
  <symbol id="back" viewBox="0 0 24 24">
    <path fill-rule="evenodd" clip-rule="evenodd" d="M6.25838 12L13.9114 19.9365C14.4169 20.4606 14.3486 21.2498 13.7589 21.699C13.1692 22.1483 12.2815 22.0876 11.776 21.5635L3.33854 12.8135C2.88715 12.3454 2.88715 11.6546 3.33854 11.1865L11.776 2.43653C12.2815 1.91238 13.1692 1.85167 13.7589 2.30095C14.3486 2.75023 14.4169 3.53935 13.9114 4.06351L6.25838 12Z" />

  </symbol>
  <symbol id="badge" viewBox="0 0 24 24">
    <path fill-rule="evenodd" clip-rule="evenodd" d="M23.4474 10.4436C23.8035 10.8816 24 11.4346 24 12C24 12.5665 23.8035 13.119 23.4465 13.5558L22.441 14.7953L22.6926 16.3742C22.7812 16.9296 22.675 17.5063 22.3936 17.9978C22.108 18.4913 21.661 18.8712 21.1335 19.0706L19.6443 19.6401L19.0719 21.1346C18.8712 21.661 18.4907 22.1078 18.0009 22.3914C17.5118 22.6747 16.9347 22.7814 16.3759 22.6919L14.7966 22.4409L13.5564 23.4474C13.1184 23.8035 12.5654 24 12 24C11.4335 24 10.881 23.8035 10.4442 23.4465L9.20471 22.441L7.62579 22.6926C7.07043 22.7812 6.49365 22.675 6.0022 22.3936C5.50873 22.108 5.12878 21.661 4.92938 21.1335L4.35992 19.6443L2.86542 19.0719C2.33899 18.8712 1.89221 18.4907 1.60858 18.0009C1.32532 17.5118 1.21857 16.9347 1.30811 16.3759L1.55914 14.7966L0.552612 13.5564C0.196472 13.1184 0 12.5654 0 12C0 11.4335 0.196472 10.881 0.553528 10.4442L1.55896 9.20471L1.30737 7.62579C1.21875 7.07043 1.32495 6.49365 1.60638 6.0022C1.89203 5.50873 2.33899 5.12878 2.86652 4.92938L4.35571 4.35992L4.9281 2.86542C5.12878 2.33899 5.50928 1.89221 5.99908 1.60858C6.48816 1.32532 7.06531 1.21857 7.62415 1.30811L9.20343 1.55914L10.4436 0.552612C10.8816 0.196472 11.4346 0 12 0C12.5665 0 13.119 0.196472 13.5558 0.553528L14.7953 1.55896L16.3742 1.30737C16.9296 1.21875 17.5063 1.32495 17.9978 1.60638C18.4913 1.89203 18.8712 2.33899 19.0706 2.86652L19.6401 4.35571L21.1346 4.9281C21.661 5.12878 22.1078 5.50928 22.3914 5.99908C22.6747 6.48816 22.7814 7.06531 22.6919 7.62415L22.4409 9.20343L23.4474 10.4436ZM10.142 15.9607L12 15.3L13.858 15.9607C14.52 16.1961 15.212 15.6934 15.1927 14.991L15.1385 13.0198L16.341 11.4568C16.7695 10.9 16.5052 10.0865 15.8312 9.88784L13.9397 9.33024L12.8249 7.70359C12.4277 7.12401 11.5723 7.12401 11.1751 7.70359L10.0603 9.33024L8.16877 9.88784C7.49482 10.0865 7.23051 10.9 7.65897 11.4568L8.86151 13.0198L8.8073 14.991C8.78798 15.6934 9.47995 16.1961 10.142 15.9607Z" />

  </symbol>
  <symbol id="bookmark" viewBox="0 0 24 24">
    <path fill-rule="evenodd" clip-rule="evenodd" d="M17 3H7C5.89543 3 5 3.89543 5 5V21L12 18L19 21V5C19 3.89 18.1 3 17 3Z" />
    <mask id="mask0_0_2748" style="mask-type:alpha" maskUnits="userSpaceOnUse" x="5" y="3" width="14" height="18">
      <path fill-rule="evenodd" clip-rule="evenodd" d="M17 3H7C5.89543 3 5 3.89543 5 5V21L12 18L19 21V5C19 3.89 18.1 3 17 3Z" fill="white" />
    </mask>
    <g mask="url(#mask0_0_2748)"></g>

  </symbol>
  <symbol id="bus" viewBox="0 0 24 24">
    <path fill-rule="evenodd" clip-rule="evenodd" d="M11.1819 2C6.66136 2 3 2.52633 3 6.21051V16.7368C3 17.6684 3.39886 18.4947 4.02272 19.0737V20.9474C4.02272 21.5263 4.48294 22 5.04543 22H6.06819C6.63581 22 7.09091 21.5263 7.09091 20.9474V19.8948H15.2728V20.9474C15.2728 21.5263 15.7279 22 16.2955 22H17.3182C17.8807 22 18.3409 21.5263 18.3409 20.9474V19.0737C18.9648 18.4948 19.3636 17.6684 19.3636 16.7369V6.21051C19.3636 2.52633 15.7023 2 11.1819 2ZM6.18182 17.4545C5.42726 17.4545 4.81818 16.8455 4.81818 16.0909C4.81818 15.3364 5.42726 14.7273 6.18182 14.7273C6.93638 14.7273 7.54545 15.3364 7.54545 16.0909C7.54545 16.8455 6.93634 17.4545 6.18182 17.4545ZM15.2727 14.7273C16.0273 14.7273 16.6364 15.3364 16.6364 16.0909C16.6364 16.8455 16.0272 17.4545 15.2727 17.4545C14.5182 17.4545 13.9091 16.8455 13.9091 16.0909C13.9091 15.3364 14.5182 14.7273 15.2727 14.7273ZM16.5455 6.54545C17.0977 6.54545 17.5455 6.99317 17.5455 7.54545V11C17.5455 11.5523 17.0977 12 16.5455 12H5.81818C5.2659 12 4.81818 11.5523 4.81818 11V7.54545C4.81818 6.99317 5.2659 6.54545 5.81818 6.54545H16.5455Z" />

  </symbol>
  <symbol id="calendar" viewBox="0 0 24 24">
    <path fill-rule="evenodd" clip-rule="evenodd" d="M19.4222 3.17779H18.3334V1H16.1556V3.17779H7.44446V1H5.26666V3.17779H4.17779C2.97459 3.17779 2.01092 4.15233 2.01092 5.35559L2 20.6C2 21.8032 2.97454 22.7778 4.17779 22.7778H19.4222C20.6255 22.7778 21.6 21.8032 21.6 20.6V5.35554C21.6 4.15233 20.6255 3.17779 19.4222 3.17779ZM19.4222 20.6H4.17779V8.6222H19.4222V20.6Z" />

  </symbol>
  <symbol id="camera" viewBox="0 0 24 24">
    <path fill-rule="evenodd" clip-rule="evenodd" d="M16.3411 3.15399C17.0894 4.22533 18.3138 4.86364 19.6205 4.86364H21C22.6569 4.86364 24 6.14573 24 7.72727V20.1364C24 21.7179 22.6569 23 21 23H3C1.34315 23 0 21.7179 0 20.1364V7.72727C0 6.14573 1.34315 4.86364 3 4.86364H4.37948C5.68624 4.86364 6.91062 4.22533 7.65885 3.15399L8.16795 2.42506C8.35342 2.15951 8.66565 2 9 2H15C15.3344 2 15.6466 2.15951 15.8321 2.42506L16.3411 3.15399ZM6 14C6 17.3137 8.68629 20 12 20C15.3137 20 18 17.3137 18 14C18 10.6863 15.3137 8 12 8C8.68629 8 6 10.6863 6 14ZM16 14C16 16.2091 14.2091 18 12 18C9.79086 18 8 16.2091 8 14C8 11.7909 9.79086 10 12 10C14.2091 10 16 11.7909 16 14Z" />

  </symbol>
  <symbol id="car" viewBox="0 0 24 24">
    <path fill-rule="evenodd" clip-rule="evenodd" d="M19.7989 4.96045C19.447 3.78754 18.3883 3 17.1643 3H6.83571C5.61177 3 4.55299 3.78754 4.20119 4.96045L2.65826 10.1035C1.30302 12.2701 1.61568 19.5 2.37502 19.5V20.8749C2.37502 21.6343 2.9906 22.25 3.75002 22.25H5.1251C5.88444 22.25 6.5001 21.6343 6.5001 20.875L6.49952 19.5H17.5L17.4999 20.8749C17.4999 21.6343 18.1155 22.25 18.8749 22.25H20.25C21.0094 22.25 21.625 21.6343 21.625 20.875V19.5001C22.3844 19.5 22.4717 11.7075 21.3418 10.1035L19.7989 4.96045ZM6.83567 5.75H17.1643L18.4018 9.875H5.59814L6.83567 5.75H6.83567ZM6.49998 16.0625C5.74056 16.0625 5.12498 15.4468 5.12498 14.6875C5.12498 13.9281 5.74056 13.3125 6.49998 13.3125C7.2594 13.3125 7.87498 13.9281 7.87498 14.6875C7.87498 15.4468 7.2594 16.0625 6.49998 16.0625ZM17.5 16.0625C16.7406 16.0625 16.125 15.4468 16.125 14.6875C16.125 13.9281 16.7406 13.3125 17.5 13.3125C18.2594 13.3125 18.875 13.9281 18.875 14.6875C18.875 15.4468 18.2594 16.0625 17.5 16.0625Z" />

  </symbol>
  <symbol id="comment" viewBox="0 0 24 24">
    <path fill-rule="evenodd" clip-rule="evenodd" d="M3 1C1.89543 1 1 1.89543 1 3V15.4286C1 16.5331 1.89543 17.4286 3 17.4286H7.70185C7.74504 17.5124 7.79837 17.5903 7.86096 17.6598L11.801 22.0356C12.1871 22.4643 12.813 22.4643 13.199 22.0356L17.139 17.6598C17.2027 17.5892 17.2558 17.5113 17.2984 17.4286H22C23.1046 17.4286 24 16.5331 24 15.4286V3C24 1.89543 23.1046 1 22 1H3Z" />

  </symbol>
  <symbol id="copy" viewBox="0 0 24 24">
    <path fill-rule="evenodd" clip-rule="evenodd" d="M5.1 4H14.9C16.0598 4 17 4.9402 17 6.1V7.5H9.3C8.1402 7.5 7.2 8.4402 7.2 9.6V18H5.1C3.9402 18 3 17.0598 3 15.9V6.1C3 4.9402 3.9402 4 5.1 4ZM19.2 9H10.8C9.80589 9 9 9.80589 9 10.8V19.2C9 20.1941 9.80589 21 10.8 21H19.2C20.1941 21 21 20.1941 21 19.2V10.8C21 9.80589 20.1941 9 19.2 9Z" />

  </symbol>
  <symbol id="day" viewBox="0 0 24 24">
    <path fill-rule="evenodd" clip-rule="evenodd" d="M12.4996 5.06405C12.988 5.06405 13.3843 4.66773 13.3843 4.17941V1.88464C13.3843 1.39455 12.988 1 12.4996 1C12.0113 1 11.615 1.39455 11.615 1.88464V4.17941C11.615 4.66773 12.0113 5.06405 12.4996 5.06405ZM12.4996 7.40694C9.64756 7.40694 7.3351 9.71939 7.3351 12.5715C7.3351 15.4236 9.64756 17.736 12.4996 17.736C15.3517 17.736 17.6642 15.4236 17.6642 12.5715C17.6642 9.71939 15.3517 7.40694 12.4996 7.40694ZM11.615 20.8199C11.615 20.3316 12.0113 19.9352 12.4996 19.9352C12.988 19.9352 13.3843 20.3316 13.3843 20.8199V23.1146C13.3843 23.6047 12.988 23.9993 12.4996 23.9993C12.0113 23.9993 11.615 23.6047 11.615 23.1146V20.8199ZM5.06405 12.4996C5.06405 12.0113 4.66773 11.615 4.17941 11.615H1.88464C1.39455 11.615 1 12.0113 1 12.4996C1 12.988 1.39455 13.3843 1.88464 13.3843H4.17941C4.66773 13.3843 5.06405 12.988 5.06405 12.4996ZM20.8206 11.615H23.1154C23.6037 11.615 24 12.0113 24 12.4996C24 12.988 23.6037 13.3843 23.1154 13.3843H20.8206C20.3305 13.3843 19.936 12.988 19.936 12.4996C19.936 12.0113 20.3305 11.615 20.8206 11.615ZM5.99098 17.7574L4.36854 19.3799C4.02176 19.7266 4.02176 20.2857 4.36854 20.6325C4.54016 20.8041 4.76663 20.8908 4.9931 20.8908C5.21957 20.8908 5.44604 20.8041 5.61943 20.6325L7.24186 19.0083C7.58687 18.6633 7.58687 18.1024 7.24186 17.7574C6.89685 17.4124 6.33599 17.4124 5.99098 17.7574ZM19.0092 7.24275C18.8358 7.41437 18.6093 7.50106 18.3829 7.50106C18.1564 7.50106 17.9299 7.41437 17.7565 7.24275C17.4115 6.89597 17.4115 6.33687 17.7565 5.99009L19.3807 4.36766C19.7258 4.02265 20.2866 4.02265 20.6316 4.36766C20.9766 4.71267 20.9766 5.27353 20.6316 5.61854L19.0092 7.24275ZM5.99098 7.24186C6.16437 7.41525 6.39084 7.50018 6.6173 7.50018C6.842 7.50018 7.06847 7.41525 7.24186 7.24186C7.58687 6.89685 7.58687 6.33599 7.24186 5.99098L5.61943 4.36677C5.27265 4.02176 4.71355 4.02176 4.36854 4.36677C4.02176 4.71355 4.02176 5.27265 4.36854 5.61943L5.99098 7.24186ZM17.7574 17.7574C18.1024 17.4124 18.6633 17.4124 19.0083 17.7574L20.6307 19.3799C20.9775 19.7266 20.9775 20.2857 20.6307 20.6325C20.4591 20.8041 20.2327 20.8908 20.0062 20.8908C19.7797 20.8908 19.5533 20.8041 19.3799 20.6325L17.7574 19.0083C17.4124 18.6633 17.4124 18.1024 17.7574 17.7574Z" />

  </symbol>
  <symbol id="delete" viewBox="0 0 24 24">
    <path fill-rule="evenodd" clip-rule="evenodd" d="M12 8.81801L17.159 3.65901C18.0377 2.78033 19.4623 2.78033 20.341 3.65901C21.2197 4.53769 21.2197 5.96231 20.341 6.84099L15.182 12L20.341 17.159C21.2197 18.0377 21.2197 19.4623 20.341 20.341C19.4623 21.2197 18.0377 21.2197 17.159 20.341L12 15.182L6.84099 20.341C5.96231 21.2197 4.53769 21.2197 3.65901 20.341C2.78033 19.4623 2.78033 18.0377 3.65901 17.159L8.81801 12L3.65901 6.84099C2.78033 5.96231 2.78033 4.53769 3.65901 3.65901C4.53769 2.78033 5.96231 2.78033 6.84099 3.65901L12 8.81801Z" />

  </symbol>
  <symbol id="download" viewBox="0 0 24 24">
    <path fill-rule="evenodd" clip-rule="evenodd" d="M10 1C8.89543 1 8 1.89543 8 3V9H5.60456C4.71839 9 4 9.82276 4 10.8377C4 11.3251 4.16905 11.7925 4.46997 12.1371L10.8654 19.4618C11.492 20.1794 12.508 20.1794 13.1346 19.4618L19.53 12.1371C20.1567 11.4195 20.1567 10.2559 19.53 9.53825C19.2291 9.19361 18.821 9 18.3954 9H16V3C16 1.89543 15.1046 1 14 1H10ZM4 22C4 21.4477 4.44772 21 5 21H19C19.5523 21 20 21.4477 20 22C20 22.5523 19.5523 23 19 23H5C4.44772 23 4 22.5523 4 22Z" />

  </symbol>
  <symbol id="dropdown" viewBox="0 0 24 24">
    <path fill-rule="evenodd" clip-rule="evenodd" d="M13.5601 19.266C12.6985 20.2447 11.3015 20.2447 10.4399 19.266L1.6462 9.2779C1.23245 8.80795 1 8.17055 1 7.50594C1 6.12195 1.98778 5 3.20627 5L20.7937 5C21.3789 5 21.94 5.26402 22.3538 5.73397C23.2154 6.7126 23.2154 8.29927 22.3538 9.2779L13.5601 19.266Z" />

  </symbol>
  <symbol id="feed" viewBox="0 0 24 24">
    <path fill-rule="evenodd" clip-rule="evenodd" d="M18.6333 15.9C19.3329 15.9 19.9 16.4437 19.9 17.1143V18.9357C19.9 19.6063 19.3329 20.15 18.6333 20.15H9.76667C9.06711 20.15 8.5 19.6063 8.5 18.9357V17.1143C8.5 16.4437 9.06711 15.9 9.76667 15.9H18.6333ZM5.125 15.9C6.2986 15.9 7.25 16.8514 7.25 18.025C7.25 19.1986 6.2986 20.15 5.125 20.15C3.95139 20.15 3 19.1986 3 18.025C3 16.8514 3.95139 15.9 5.125 15.9ZM18.6333 9.95C19.3329 9.95 19.9 10.4937 19.9 11.1643V12.9857C19.9 13.6563 19.3329 14.2 18.6333 14.2H9.76667C9.06711 14.2 8.5 13.6563 8.5 12.9857V11.1643C8.5 10.4937 9.06711 9.95 9.76667 9.95H18.6333ZM5.125 9.95C6.2986 9.95 7.25 10.9014 7.25 12.075C7.25 13.2486 6.2986 14.2 5.125 14.2C3.95139 14.2 3 13.2486 3 12.075C3 10.9014 3.95139 9.95 5.125 9.95ZM5.125 4C6.2986 4 7.25 4.95139 7.25 6.125C7.25 7.2986 6.2986 8.25 5.125 8.25C3.95139 8.25 3 7.2986 3 6.125C3 4.95139 3.95139 4 5.125 4ZM18.6333 4C19.3329 4 19.9 4.54365 19.9 5.21429V7.03571C19.9 7.70635 19.3329 8.25 18.6333 8.25H9.76667C9.06711 8.25 8.5 7.70635 8.5 7.03571V5.21429C8.5 4.54365 9.06711 4 9.76667 4H18.6333Z" />

  </symbol>
  <symbol id="fire" viewBox="0 0 24 24">
    <path fill-rule="evenodd" clip-rule="evenodd" d="M12.0772 23.3111C6.8252 23.1943 3 19.7796 3 15.4386C3 11.7484 4.89596 9.26752 7.74382 6.31306C9.60306 4.38422 10.3094 2.58278 10.7783 1.3869C11.0276 0.751023 11.2098 0.286354 11.4625 0.0647803C12.1904 -0.573498 16.0955 3.72122 17.1678 5.27395C19.8597 9.17211 20.8184 10.9777 20.8564 15.2468C20.8944 19.5159 17.3293 23.428 12.0772 23.3111ZM13.011 14.8086L13.0108 14.8083C12.4073 14.0313 11.7933 13.2406 11.3881 12.4C11.0042 12.9294 10.5865 13.5631 10.192 14.2778C9.20201 16.072 8.7 17.7543 8.7 19.278C8.7 21.22 10.1579 22.8 11.95 22.8C13.7421 22.8 15.2 21.22 15.2 19.278C15.2 17.6271 14.0872 16.1943 13.011 14.8086Z" />

  </symbol>
  <symbol id="health" viewBox="0 0 24 24">
    <path fill-rule="evenodd" clip-rule="evenodd" d="M12.8433 4.77126C15.1644 2.45013 18.9412 2.45017 21.2623 4.77126C22.3828 5.89163 22.9998 7.38659 22.9997 8.98078C22.9997 9.89494 22.7965 10.7763 22.4121 11.5733C22.3682 11.6643 22.2774 11.7231 22.1764 11.7231H17.6012L16.2775 9.32805C16.2758 9.32498 16.2739 9.32207 16.2721 9.31915C16.2705 9.31673 16.2689 9.3143 16.2674 9.31177C16.2596 9.29836 16.2515 9.28521 16.2429 9.27223C16.2362 9.26209 16.2294 9.25217 16.2223 9.24241C16.2136 9.23043 16.2045 9.2187 16.1951 9.20714C16.1871 9.1973 16.179 9.1875 16.1706 9.17809C16.1614 9.16769 16.1517 9.15764 16.1419 9.14767C16.1325 9.13809 16.1229 9.12859 16.1131 9.11957C16.1035 9.11076 16.0935 9.10225 16.0834 9.09383C16.0724 9.08463 16.0613 9.07565 16.0499 9.0671C16.0401 9.05975 16.03 9.05271 16.0198 9.04575C16.0071 9.03711 15.9943 9.02882 15.9813 9.02091C15.9713 9.01489 15.9612 9.00922 15.9511 9.00359C15.9369 8.99582 15.9226 8.98851 15.9081 8.98164C15.9056 8.98048 15.9033 8.97922 15.9009 8.97796C15.898 8.97637 15.895 8.97478 15.8919 8.97339C15.889 8.97209 15.8861 8.97104 15.8833 8.96999C15.881 8.96916 15.8787 8.96832 15.8765 8.96737C15.8623 8.96136 15.8479 8.95586 15.8335 8.95066C15.8215 8.94632 15.8094 8.94206 15.7973 8.93832C15.7845 8.93441 15.7717 8.93098 15.7588 8.92767C15.7449 8.92406 15.7311 8.92058 15.7172 8.91779C15.7071 8.91575 15.6969 8.91412 15.6867 8.9125L15.6818 8.91173C15.667 8.90945 15.6523 8.90713 15.6375 8.90563C15.6277 8.90463 15.6178 8.90405 15.6078 8.90347C15.6057 8.90334 15.6036 8.90322 15.6015 8.90309L15.5974 8.90285C15.5844 8.90211 15.5714 8.90137 15.5585 8.90133C15.5453 8.90129 15.5321 8.90189 15.5189 8.90245C15.5058 8.90296 15.4928 8.90348 15.4798 8.90464C15.4654 8.90592 15.451 8.90799 15.4366 8.91005L15.4366 8.91005C15.4248 8.91168 15.413 8.91332 15.4013 8.91551C15.3867 8.91826 15.3721 8.92174 15.3575 8.9253C15.3459 8.92818 15.3343 8.93098 15.3229 8.93429C15.3092 8.93824 15.2957 8.94284 15.2822 8.94756C15.2697 8.95199 15.2571 8.95646 15.2448 8.9614C15.233 8.96621 15.2214 8.97137 15.2097 8.97674C15.1957 8.98314 15.1819 8.9898 15.1683 8.99698C15.1642 8.99913 15.16 9.00083 15.1559 9.0029C15.1551 9.00332 15.1543 9.00375 15.1535 9.0042C15.1505 9.00583 15.1476 9.00766 15.1448 9.0095C15.1426 9.01094 15.1404 9.01239 15.1381 9.01373C15.1241 9.02181 15.1104 9.03032 15.0969 9.03926C15.0873 9.0457 15.0778 9.05219 15.0684 9.05894C15.0561 9.06792 15.0439 9.07729 15.032 9.087C15.0225 9.09473 15.0131 9.10255 15.0039 9.11067C14.9932 9.12017 14.9828 9.13009 14.9727 9.14019C14.9633 9.14939 14.9541 9.15871 14.9452 9.16829C14.9361 9.17813 14.9275 9.18836 14.9188 9.19871C14.9098 9.20946 14.9011 9.22033 14.8927 9.23146C14.8851 9.24155 14.8779 9.25187 14.8708 9.26235C14.8624 9.27473 14.8542 9.28723 14.8465 9.30004C14.8404 9.31018 14.8344 9.32053 14.8287 9.33102C14.8212 9.34494 14.814 9.35895 14.8072 9.37321C14.8046 9.37888 14.8013 9.38408 14.7988 9.3898L13.3821 12.55L12.6407 11.7206C12.6369 11.7164 12.6328 11.7124 12.6288 11.7085C12.626 11.7058 12.6233 11.7031 12.6206 11.7004C12.6181 11.6977 12.6156 11.6949 12.6131 11.6921C12.6096 11.6882 12.6061 11.6843 12.6023 11.6805C12.6006 11.6789 12.5988 11.6773 12.597 11.6758C12.5954 11.6744 12.5938 11.673 12.5922 11.6716C12.5809 11.6608 12.5692 11.6507 12.5573 11.6408C12.5479 11.6328 12.5386 11.6247 12.5289 11.6172C12.5167 11.6078 12.5042 11.5991 12.4916 11.5905C12.4814 11.5835 12.4713 11.5764 12.4608 11.5699C12.4485 11.5622 12.4358 11.5552 12.4231 11.5482C12.4118 11.5419 12.4006 11.5357 12.3891 11.53C12.378 11.5246 12.3669 11.5198 12.3557 11.5149L12.3519 11.5133C12.3501 11.5125 12.3484 11.5118 12.3466 11.511C12.336 11.5064 12.3254 11.5019 12.3146 11.4978C12.3026 11.4934 12.2905 11.4895 12.2784 11.4856L12.2777 11.4854L12.2771 11.4852C12.2642 11.481 12.2513 11.4768 12.2382 11.4734C12.2272 11.4704 12.2161 11.468 12.205 11.4656L12.2009 11.4647L12.1987 11.4642C12.186 11.4615 12.1733 11.4587 12.1604 11.4566C12.1498 11.4548 12.1391 11.4535 12.1284 11.4522C12.1264 11.452 12.1243 11.4517 12.1223 11.4515L12.122 11.4514C12.1086 11.4498 12.0953 11.4482 12.0819 11.4473C12.0688 11.4464 12.0556 11.4461 12.0424 11.4459C12.0293 11.4456 12.0162 11.4452 12.0031 11.4455C11.9905 11.4459 11.9779 11.4468 11.9652 11.4477L11.9623 11.448C11.9495 11.4489 11.9368 11.4497 11.9242 11.4513C11.9107 11.4529 11.8973 11.4552 11.8838 11.4575L11.883 11.4577C11.8811 11.458 11.8791 11.4583 11.8772 11.4587C11.8667 11.4605 11.8562 11.4623 11.8458 11.4645C11.8331 11.4673 11.8204 11.4708 11.8077 11.4743L11.8055 11.4749C11.8036 11.4754 11.8016 11.4759 11.7996 11.4765C11.7892 11.4794 11.7787 11.4822 11.7684 11.4856C11.7565 11.4894 11.7448 11.4939 11.733 11.4983L11.7302 11.4994C11.7176 11.5042 11.7051 11.5089 11.6926 11.5143C11.6816 11.5191 11.6708 11.5245 11.66 11.5299L11.6574 11.5311C11.6446 11.5375 11.6318 11.5438 11.6193 11.5509C11.6103 11.5559 11.6015 11.5614 11.5926 11.5669C11.5908 11.568 11.589 11.5692 11.5872 11.5703C11.5743 11.5783 11.5616 11.5864 11.5491 11.5951C11.5408 11.601 11.5327 11.6072 11.5246 11.6135C11.5229 11.6148 11.5211 11.6162 11.5194 11.6175C11.5072 11.627 11.4951 11.6365 11.4833 11.6466C11.4799 11.6496 11.4762 11.6521 11.4728 11.6552C11.4687 11.6588 11.465 11.6626 11.4613 11.6664C11.4588 11.669 11.4563 11.6716 11.4537 11.6741C11.4507 11.6769 11.4476 11.6797 11.4446 11.6824C11.4405 11.686 11.4365 11.6896 11.4326 11.6935L10.5752 12.5703L9.63629 9.44067C9.63543 9.43779 9.63423 9.43513 9.63332 9.43234C9.62907 9.41868 9.62405 9.40531 9.61901 9.39189L9.61734 9.38743C9.61609 9.3841 9.61487 9.38075 9.61366 9.3774C9.61087 9.3697 9.60808 9.36202 9.60488 9.35456C9.60039 9.34403 9.59532 9.33374 9.59024 9.32346C9.58904 9.32104 9.58785 9.31862 9.58666 9.31619C9.58514 9.31303 9.58364 9.30985 9.58214 9.30668C9.57802 9.29796 9.5739 9.28924 9.5693 9.28083C9.56521 9.27338 9.56071 9.26615 9.5562 9.25893C9.55408 9.25552 9.55196 9.25212 9.54988 9.24869C9.54809 9.24572 9.54631 9.24274 9.54453 9.23976C9.53893 9.23039 9.53333 9.221 9.52723 9.21204C9.52266 9.20532 9.51768 9.19887 9.5127 9.19242C9.51006 9.189 9.50742 9.18558 9.50485 9.18213C9.50235 9.17881 9.49988 9.17546 9.49741 9.17212C9.49144 9.16402 9.48547 9.15592 9.47902 9.14823C9.47294 9.14092 9.46641 9.13397 9.45986 9.12701C9.45701 9.12398 9.45416 9.12095 9.45135 9.11789C9.44901 9.11533 9.44669 9.11276 9.44437 9.11018C9.438 9.10311 9.43162 9.09604 9.42488 9.08936C9.4177 9.0823 9.4101 9.07565 9.40247 9.06898C9.39955 9.06643 9.39663 9.06388 9.39373 9.0613C9.39076 9.05866 9.38782 9.05598 9.38487 9.05331C9.37828 9.04731 9.37168 9.04131 9.36473 9.03569C9.35741 9.02977 9.34967 9.02422 9.34192 9.01866C9.33916 9.01668 9.3364 9.0147 9.33366 9.0127C9.33133 9.01099 9.329 9.00926 9.32667 9.00754C9.31745 9.0007 9.3082 8.99384 9.2986 8.98752C9.29222 8.98337 9.2856 8.97949 9.27897 8.97561C9.27559 8.97364 9.27221 8.97166 9.26886 8.96965C9.25516 8.9614 9.24141 8.95311 9.22718 8.94567C9.22591 8.94501 9.22472 8.9443 9.22354 8.94358C9.22225 8.9428 9.22097 8.94203 9.21958 8.94133C9.21516 8.93909 9.21065 8.93718 9.20615 8.93527C9.20271 8.93381 9.19928 8.93236 9.1959 8.93076L9.19338 8.92958C9.18 8.92331 9.16664 8.91705 9.15289 8.91151C9.14265 8.90739 9.13235 8.90379 9.12201 8.90017C9.12037 8.8996 9.11873 8.89902 9.1171 8.89845C9.10378 8.89372 9.09041 8.88913 9.07679 8.88509C9.06382 8.88126 9.05071 8.87804 9.03761 8.8749C9.02467 8.87177 9.01174 8.86867 8.99863 8.86618C8.98501 8.8636 8.97139 8.86158 8.95777 8.85969C8.94475 8.85789 8.93177 8.85617 8.91867 8.85496C8.90492 8.85372 8.89121 8.85307 8.87746 8.85252C8.86431 8.85196 8.85121 8.85148 8.83797 8.85161C8.82405 8.85174 8.81017 8.85247 8.79629 8.85329C8.7834 8.85406 8.77051 8.85484 8.75753 8.85621C8.74293 8.85772 8.72845 8.85999 8.71392 8.86231C8.71201 8.86262 8.71009 8.86293 8.70817 8.86323C8.69806 8.86484 8.68794 8.86645 8.67778 8.86854C8.66202 8.87181 8.64646 8.87585 8.63091 8.88006C8.62733 8.88102 8.62375 8.88184 8.62017 8.88265C8.61561 8.88369 8.61105 8.88473 8.6065 8.88607C8.60375 8.88693 8.60121 8.88805 8.59846 8.88895C8.58474 8.8932 8.57121 8.89829 8.55773 8.90335C8.55594 8.90402 8.55415 8.9047 8.55236 8.90537C8.54861 8.9068 8.54483 8.90818 8.54105 8.90957C8.53417 8.91208 8.5273 8.9146 8.52065 8.9174C8.50983 8.922 8.49929 8.9272 8.48876 8.9324C8.48603 8.93375 8.48329 8.9351 8.48056 8.93643C8.47693 8.93822 8.47326 8.93996 8.4696 8.94171C8.46199 8.94533 8.45438 8.94895 8.44704 8.95298C8.43837 8.9577 8.43001 8.96293 8.42163 8.96815C8.41844 8.97015 8.41524 8.97215 8.41202 8.97412C8.40862 8.9762 8.40518 8.97825 8.40175 8.9803C8.39379 8.98505 8.38583 8.98981 8.37821 8.995C8.36968 9.00079 8.3615 9.00711 8.3533 9.01344C8.35031 9.01575 8.34732 9.01806 8.3443 9.02035C8.34101 9.02286 8.33768 9.02532 8.33435 9.02779C8.32762 9.03276 8.32089 9.03774 8.31448 9.04308C8.30537 9.05069 8.29673 9.05885 8.28807 9.06702C8.28534 9.0696 8.2826 9.07218 8.27985 9.07475C8.27699 9.07743 8.27407 9.08007 8.27114 9.08271C8.26591 9.08743 8.26066 9.09216 8.2557 9.09718C8.24701 9.10597 8.23885 9.11533 8.23068 9.1247C8.22847 9.12723 8.22626 9.12976 8.22404 9.13229C8.22153 9.13513 8.21898 9.13795 8.21642 9.14077C8.21151 9.14618 8.20659 9.1516 8.20199 9.15725C8.19505 9.16576 8.18858 9.17478 8.18211 9.18381C8.18025 9.1864 8.17838 9.189 8.17651 9.19158C8.17438 9.19452 8.17222 9.19744 8.17006 9.20036C8.16449 9.20791 8.15891 9.21546 8.15374 9.22329C8.14872 9.23095 8.14406 9.23893 8.13941 9.24691C8.13769 9.24986 8.13597 9.2528 8.13423 9.25573C8.13315 9.25755 8.13207 9.25937 8.13099 9.26119C8.1244 9.27225 8.11782 9.2833 8.11184 9.29471C8.11117 9.29596 8.11044 9.29718 8.10971 9.29839C8.10882 9.29986 8.10794 9.30134 8.10716 9.30287L6.84629 11.7781H1.85014C1.75049 11.7781 1.66017 11.7209 1.61587 11.6316C1.21304 10.8194 1 9.91715 1 8.98065C1 7.38651 1.61703 5.89154 2.73714 4.77126C5.05827 2.45013 8.83505 2.45013 11.1562 4.77126L11.9997 5.61482L12.8433 4.77126ZM17.1396 13.3774H20.4475C20.6792 13.3774 20.7953 13.6576 20.6315 13.8218L13.3973 21.0559C13.1082 21.3452 12.7889 21.6046 12.4485 21.827C12.3089 21.9182 12.1519 21.9619 11.9968 21.9619C11.8092 21.9619 11.625 21.8968 11.4763 21.7764C11.1643 21.5654 10.8705 21.3236 10.6029 21.0559L3.42391 13.8769C3.26003 13.7131 3.37609 13.4329 3.60782 13.4329H7.34953L7.3528 13.433C7.37863 13.433 7.40428 13.4314 7.4298 13.429L7.4466 13.4273C7.46907 13.4247 7.49146 13.4215 7.51359 13.4171L7.52803 13.414C7.54792 13.4097 7.56756 13.4046 7.58707 13.3989C7.59575 13.3963 7.60443 13.3936 7.61302 13.3907C7.62892 13.3854 7.64456 13.3796 7.66011 13.3734C7.66652 13.3709 7.67305 13.3687 7.67932 13.366C7.69986 13.3571 7.72006 13.3472 7.73991 13.3367C7.74614 13.3334 7.7522 13.3299 7.75838 13.3265C7.77523 13.3171 7.79164 13.307 7.8078 13.2965C7.80935 13.2954 7.81091 13.2944 7.81248 13.2934C7.81465 13.2921 7.81682 13.2907 7.81897 13.2892C7.83951 13.2753 7.8594 13.2604 7.87865 13.2446L7.88162 13.2421C7.89971 13.227 7.91707 13.2111 7.93395 13.1945L7.94152 13.1869C7.97572 13.1524 8.00717 13.1145 8.03532 13.0734C8.03901 13.068 8.04249 13.0624 8.04606 13.0569C8.05521 13.0427 8.06406 13.0283 8.07248 13.0134C8.07687 13.0057 8.08116 12.9981 8.08529 12.9903C8.08606 12.9888 8.08689 12.9874 8.08772 12.9859C8.08864 12.9843 8.08957 12.9827 8.0904 12.9811L8.64496 11.8925L9.39403 14.3894L9.39463 14.3912C9.39664 14.3978 9.399 14.4043 9.40137 14.4109C9.4027 14.4145 9.40402 14.4182 9.40529 14.4219L9.40681 14.4263C9.41098 14.4383 9.41514 14.4504 9.41986 14.462C9.42389 14.4721 9.42849 14.4819 9.43296 14.4918C9.43911 14.5053 9.44538 14.5188 9.45217 14.5319C9.45668 14.5405 9.46136 14.5491 9.46618 14.5576C9.47464 14.5726 9.48349 14.5872 9.49277 14.6015C9.49694 14.608 9.50102 14.6145 9.50545 14.6209C9.51941 14.6412 9.53415 14.6609 9.54975 14.6798L9.55074 14.681C9.56814 14.7019 9.58653 14.7216 9.60574 14.7404L9.6081 14.743C9.61047 14.7453 9.61313 14.7473 9.61554 14.7496C9.63053 14.7639 9.64591 14.7776 9.6619 14.7906C9.66826 14.7959 9.67475 14.801 9.68123 14.806C9.69434 14.8161 9.70775 14.8257 9.72137 14.835C9.72296 14.8361 9.72456 14.8372 9.72615 14.8383C9.73235 14.8426 9.73855 14.8468 9.74491 14.8509C9.75901 14.8598 9.77357 14.868 9.78818 14.876C9.80107 14.8831 9.81396 14.8897 9.82703 14.896C9.84168 14.9031 9.85633 14.9101 9.87133 14.9163C9.87877 14.9193 9.88634 14.922 9.89392 14.9248C9.89632 14.9257 9.89871 14.9265 9.90111 14.9274C9.91438 14.9323 9.92779 14.937 9.94137 14.9413C9.95073 14.9442 9.96014 14.9469 9.96964 14.9494C9.98502 14.9536 10.0005 14.9573 10.0161 14.9606C10.0185 14.9611 10.0209 14.9616 10.0233 14.9621C10.0287 14.9632 10.034 14.9643 10.0394 14.9653C10.059 14.9689 10.0787 14.9716 10.0986 14.9737C10.1003 14.9739 10.1019 14.9741 10.1036 14.9743C10.106 14.9747 10.1084 14.975 10.1108 14.9752C10.1358 14.9775 10.1608 14.979 10.1861 14.979C10.2108 14.979 10.2357 14.9774 10.2606 14.9751C10.2645 14.9748 10.2683 14.9744 10.2721 14.9739C10.2736 14.9737 10.2752 14.9735 10.2767 14.9734C10.2955 14.9713 10.3142 14.9685 10.333 14.9651C10.3402 14.9638 10.3472 14.9627 10.3544 14.9612C10.3748 14.9569 10.3952 14.9518 10.4155 14.946C10.4714 14.93 10.5259 14.9082 10.578 14.8802C10.5899 14.8739 10.6012 14.8668 10.6126 14.8597C10.6155 14.8578 10.6184 14.856 10.6214 14.8542C10.6248 14.8521 10.6282 14.8501 10.6317 14.8481C10.6371 14.8449 10.6425 14.8418 10.6477 14.8383C10.6946 14.8068 10.7375 14.7708 10.7764 14.7311L10.7778 14.7298L11.9973 13.4827L12.999 14.6033C12.9996 14.604 13.0002 14.6046 13.0009 14.6053C13.0016 14.6059 13.0022 14.6065 13.0028 14.6072C13.0193 14.6253 13.0368 14.6426 13.0549 14.6594C13.0582 14.6624 13.0612 14.6658 13.0646 14.6688C13.0856 14.6875 13.1076 14.7055 13.1307 14.7222C13.1363 14.7262 13.1422 14.7299 13.148 14.7335C13.1517 14.7359 13.1554 14.7382 13.159 14.7406C13.162 14.7426 13.1651 14.7446 13.1681 14.7467C13.1794 14.7542 13.1906 14.7617 13.2026 14.7686C13.2219 14.7797 13.2418 14.7894 13.2617 14.7988C13.2642 14.7999 13.2666 14.8012 13.2689 14.8025C13.2717 14.804 13.2744 14.8054 13.2773 14.8067L13.2784 14.8072C13.3012 14.8173 13.3243 14.8259 13.3477 14.8339C13.3512 14.8351 13.3547 14.8366 13.3582 14.8379C13.3594 14.8383 13.3605 14.8388 13.3617 14.8391C13.3726 14.8427 13.3838 14.8455 13.395 14.8483C13.3991 14.8493 13.4032 14.8503 13.4073 14.8514C13.4762 14.8695 13.5459 14.8794 13.6152 14.8794C13.6385 14.8794 13.6617 14.8781 13.6848 14.8761C13.6867 14.8759 13.6886 14.8757 13.6905 14.8755C13.6938 14.8752 13.6972 14.8747 13.7006 14.8744C13.7174 14.8726 13.734 14.8704 13.7507 14.8676C13.7587 14.8663 13.7666 14.8649 13.7745 14.8633C13.7886 14.8606 13.8025 14.8573 13.8164 14.8538C13.8251 14.8517 13.8337 14.8497 13.8422 14.8473C13.8593 14.8424 13.8763 14.8368 13.893 14.8308C13.9039 14.827 13.9146 14.8227 13.9254 14.8183L13.9263 14.818C13.9391 14.8128 13.9517 14.8076 13.9641 14.8018C13.972 14.7982 13.9798 14.7942 13.9875 14.7903L13.9907 14.7887C14.0032 14.7823 14.0155 14.7757 14.0277 14.7687C14.0294 14.7677 14.0311 14.7667 14.0328 14.7657C14.0384 14.7625 14.044 14.7593 14.0495 14.7559C14.0898 14.731 14.1281 14.7027 14.1639 14.671L14.1667 14.6687C14.1676 14.6679 14.1684 14.6671 14.1692 14.6663C14.1698 14.6656 14.1705 14.6649 14.1712 14.6643C14.1887 14.6484 14.2054 14.6318 14.2216 14.6145L14.2297 14.6057C14.2467 14.5868 14.2632 14.5672 14.2785 14.5466C14.2808 14.5435 14.2828 14.5403 14.285 14.5372C14.2967 14.5211 14.3079 14.5044 14.3185 14.4873C14.3236 14.4791 14.3284 14.4709 14.3331 14.4625C14.3403 14.4499 14.3471 14.4371 14.3537 14.424C14.3549 14.4215 14.3562 14.419 14.3575 14.4165C14.3608 14.4098 14.3642 14.4031 14.3674 14.3963L14.3703 14.3902L15.631 11.5778L16.3604 12.8976C16.4095 12.9865 16.4727 13.0625 16.5455 13.1249C16.6959 13.2804 16.9063 13.3773 17.1396 13.3773V13.3774Z" />

  </symbol>
  <symbol id="heart" viewBox="0 0 24 24">
    <path fill-rule="evenodd" clip-rule="evenodd" d="M12.1507 21.3332C11.3695 21.3378 10.6244 21.0034 10.1073 20.4164L3.74955 13.2008C2.31356 11.7107 1.17127 8.90233 2.79298 6.01723C3.65298 4.48649 5.01812 3.42762 6.53869 3.11037C8.14383 2.77765 9.81525 3.20543 11.1284 4.28262C11.505 4.59243 11.8375 4.94176 12.1221 5.32316C12.3615 4.98814 12.6364 4.67948 12.9432 4.40345C14.0855 3.37952 15.5484 2.91623 17.0627 3.09261C19.5318 3.38296 21.5312 5.41478 21.9244 8.03474C22.2078 9.92855 21.6964 11.6288 20.3609 13.2323L14.1832 20.3946C13.6724 20.9868 12.9318 21.3287 12.1507 21.3332Z" />

  </symbol>
  <symbol id="hide" viewBox="0 0 24 24">
    <path fill-rule="evenodd" clip-rule="evenodd" d="M3.93934 20.5363C4.52513 21.1546 5.47487 21.1546 6.06066 20.5363L21.0607 4.70292C21.6464 4.08459 21.6464 3.08208 21.0607 2.46375C20.4749 1.84542 19.5251 1.84542 18.9393 2.46375L3.93934 18.2971C3.35355 18.9154 3.35355 19.9179 3.93934 20.5363ZM12 20.25C10.9696 20.25 9.98187 20.0845 9.03757 19.773L13.1955 15.4674C14.2991 15.0869 15.1642 14.1944 15.5069 13.0738L20.3958 8.01123C21.0717 8.76685 21.6666 9.56164 22.1802 10.3569C22.5325 10.9024 22.7744 11.3323 22.9032 11.5901C23.0323 11.8481 23.0323 12.1519 22.9032 12.4099C22.7744 12.6677 22.5325 13.0976 22.1802 13.6431C21.597 14.5461 20.909 15.4485 20.1167 16.2936C17.8105 18.7535 15.0982 20.25 12 20.25ZM8.47046 11.0032C8.80377 9.82062 9.71538 8.88047 10.8807 8.50733L15.0016 4.23998C14.0454 3.92014 13.0447 3.75 12 3.75C8.90185 3.75 6.18953 5.24645 3.88334 7.70639C3.09103 8.55152 2.40296 9.45391 1.81981 10.3569C1.46747 10.9024 1.22563 11.3323 1.09678 11.5901C0.967742 11.8481 0.967742 12.1519 1.09678 12.4099C1.22563 12.6677 1.46747 13.0976 1.81981 13.6431C2.33968 14.4481 2.94294 15.2526 3.6291 16.0165L8.47046 11.0032Z" />

  </symbol>
  <symbol id="home" viewBox="0 0 24 24">
    <path fill-rule="evenodd" clip-rule="evenodd" d="M12.5889 3.62037C12.2687 3.28311 11.7313 3.28311 11.4111 3.62037L3.25762 12.6551C3.09179 12.8388 3 13.0775 3 13.325V19.8474C3 20.5571 3.576 21.1331 4.28571 21.1331H8.14286C8.85257 21.1331 9.42857 20.5571 9.42857 19.8474V14.7045C9.42857 13.9948 10.0046 13.4188 10.7143 13.4188H13.2857C13.9954 13.4188 14.5714 13.9948 14.5714 14.7045V19.8474C14.5714 20.5571 15.1474 21.1331 15.8571 21.1331H19.7143C20.424 21.1331 21 20.5571 21 19.8474V13.325C21 13.0775 20.9082 12.8388 20.7424 12.6551L12.5889 3.62037Z" />

  </symbol>
  <symbol id="lock" viewBox="0 0 24 24">
    <path fill-rule="evenodd" clip-rule="evenodd" d="M12 0C8.26025 0 5.25 3.05804 5.25 6.85714V8C4.01074 8 3 9.02679 3 10.2857V21.7143C3 22.9732 4.01074 24 5.25 24H18.75C19.9893 24 21 22.9732 21 21.7143V10.2857C21 9.02679 19.9893 8 18.75 8V6.85714C18.75 3.05804 15.7397 0 12 0ZM12 2.28571C14.562 2.28571 16.5 4.25446 16.5 6.85714V8H7.5V6.85714C7.5 4.25446 9.43799 2.28571 12 2.28571ZM12 13.7143C13.2393 13.7143 14.25 14.7411 14.25 16C14.25 17.2589 13.2393 18.2857 12 18.2857C10.7607 18.2857 9.75 17.2589 9.75 16C9.75 14.7411 10.7607 13.7143 12 13.7143Z" />

  </symbol>
  <symbol id="message" viewBox="0 0 24 24">
    <path fill-rule="evenodd" clip-rule="evenodd" d="M21.6 2H2.4C1.08 2 0 3.08 0 4.4V18.8C0 20.12 1.08 21.2 2.4 21.2H21.6C22.92 21.2 24 20.12 24 18.8V4.4C24 3.08 22.92 2 21.6 2ZM21.6 6.8L12 12.8L2.4 6.8V4.4L12 10.4L21.6 4.4V6.8Z" />

  </symbol>
  <symbol id="minus" viewBox="0 0 24 24">
    <path fill-rule="evenodd" clip-rule="evenodd" d="M4 14H20C21.1046 14 22 13.1046 22 12C22 10.8954 21.1046 10 20 10H4C2.89543 10 2 10.8954 2 12C2 13.1046 2.89543 14 4 14Z" />

  </symbol>
  <symbol id="more" viewBox="0 0 24 24">
    <path fill-rule="evenodd" clip-rule="evenodd" d="M2.88 14.76C4.47058 14.76 5.76 13.4706 5.76 11.88C5.76 10.2894 4.47058 9 2.88 9C1.28942 9 0 10.2894 0 11.88C0 13.4706 1.28942 14.76 2.88 14.76ZM12.48 14.76C14.0706 14.76 15.36 13.4706 15.36 11.88C15.36 10.2894 14.0706 9 12.48 9C10.8894 9 9.6 10.2894 9.6 11.88C9.6 13.4706 10.8894 14.76 12.48 14.76ZM24 11.88C24 13.4706 22.7106 14.76 21.12 14.76C19.5294 14.76 18.24 13.4706 18.24 11.88C18.24 10.2894 19.5294 9 21.12 9C22.7106 9 24 10.2894 24 11.88Z" />

  </symbol>
  <symbol id="night" viewBox="0 0 24 24">
    <path fill-rule="evenodd" clip-rule="evenodd" d="M8.6091 10.1119C8.56525 6.97237 10.389 4.28331 13.0172 3.08457C13.548 2.8439 13.3892 2.00772 12.8085 2.00154C12.7752 2 12.7435 2 12.7102 2C7.47948 1.99692 3.04114 6.48485 3.00031 11.8213C2.95796 17.3244 7.31767 21.8 12.7027 21.8C16.1596 21.8 19.1885 19.9533 20.9049 17.1748C21.2346 16.6425 20.6418 16.0377 20.1261 16.3849C19.0328 17.1161 17.7429 17.5635 16.3501 17.616C12.252 17.7703 8.66657 14.2959 8.6091 10.1119Z" />

  </symbol>
  <symbol id="nutrition" viewBox="0 0 24 24">
    <path fill-rule="evenodd" clip-rule="evenodd" d="M15.6861 0.0152793C15.9069 0.0331621 16.0822 0.20821 16.1003 0.428941C16.3095 2.9824 14.3412 4.99999 11.919 4.99999C11.7998 4.99999 11.6753 4.99536 11.545 4.98519C11.3234 4.96776 11.1472 4.79157 11.1295 4.56979C10.9234 1.94138 13.0246 -0.20281 15.6861 0.0152793ZM13.2655 5.7007C16.7786 3.95132 19.8822 5.78175 21.4729 7.88292C22.7 9.50338 23.8244 12.3806 22.2116 16.8843C21.1883 19.7404 18.576 23.9899 15.5752 23.992C14.4241 23.992 13.7502 23.5201 13.1866 23.1256C12.7817 22.8421 12.4338 22.5985 12.0069 22.5985C11.6619 22.5985 11.2686 22.8418 10.8098 23.1257C10.1675 23.5231 9.39675 24 8.45023 24C5.76533 24 3.07695 20.4204 1.80916 16.8843C0.198127 12.3858 1.33011 9.50091 2.56304 7.87304C4.14975 5.77761 7.24869 3.95263 10.7531 5.70015C11.2153 5.92927 11.5714 6.03188 12.007 6.05925C12.4437 6.03163 12.8229 5.92327 13.2655 5.7007ZM8.00002 11C8.00002 10.4477 8.44774 10 9.00002 10C9.55231 10 10 10.4477 10 11V15C10 15.5523 9.55231 16 9.00002 16C8.44774 16 8.00002 15.5523 8.00002 15V11ZM15 10C14.4477 10 14 10.4477 14 11V15C14 15.5523 14.4477 16 15 16C15.5523 16 16 15.5523 16 15V11C16 10.4477 15.5523 10 15 10Z" />

  </symbol>
  <symbol id="pause" viewBox="0 0 24 24">
    <path fill-rule="evenodd" clip-rule="evenodd" d="M6 1C4.89543 1 4 1.89543 4 3V21C4 22.1046 4.89543 23 6 23H8.41667C9.52124 23 10.4167 22.1046 10.4167 21V3C10.4167 1.89543 9.52124 1 8.41667 1H6ZM16.0833 1C14.9788 1 14.0833 1.89543 14.0833 3V21C14.0833 22.1046 14.9788 23 16.0833 23H18.5C19.6046 23 20.5 22.1046 20.5 21V3C20.5 1.89543 19.6046 1 18.5 1H16.0833Z" />

  </symbol>
  <symbol id="place" viewBox="0 0 24 24">
    <path fill-rule="evenodd" clip-rule="evenodd" d="M12.347 1C7.74443 1 4 4.57423 4 8.96753C4 14.4198 11.4697 22.4239 11.7878 22.762C12.0865 23.0796 12.608 23.079 12.9062 22.762C13.2242 22.4239 20.694 14.4198 20.694 8.96753C20.6939 4.57423 16.9495 1 12.347 1ZM12.347 12.3532C10.6893 12.3532 9.34075 11.0046 9.34075 9.34695C9.34075 7.6893 10.6894 6.34075 12.347 6.34075C14.0046 6.34075 15.3532 7.68934 15.3532 9.34698C15.3532 11.0046 14.0046 12.3532 12.347 12.3532Z" />

  </symbol>
  <symbol id="play" viewBox="0 0 24 24">
    <path fill-rule="evenodd" clip-rule="evenodd" d="M21.149 9.93199C22.4591 10.7061 22.4591 12.6016 21.149 13.3757L7.77269 21.2799C6.43946 22.0677 4.75524 21.1066 4.75524 19.558V3.74965C4.75524 2.20105 6.43946 1.23998 7.77269 2.02779L21.149 9.93199Z" />

  </symbol>
  <symbol id="plus" viewBox="0 0 24 24">
    <path fill-rule="evenodd" clip-rule="evenodd" d="M10.9873 10.9873V4.51274C10.9873 3.67728 11.6645 3 12.5 3C13.3355 3 14.0127 3.67728 14.0127 4.51274V10.9873H20.4873C21.3227 10.9873 22 11.6645 22 12.5C22 13.3355 21.3227 14.0127 20.4873 14.0127H14.0127V20.4873C14.0127 21.3227 13.3355 22 12.5 22C11.6645 22 10.9873 21.3227 10.9873 20.4873V14.0127H4.51274C3.67728 14.0127 3 13.3355 3 12.5C3 11.6645 3.67728 10.9873 4.51274 10.9873H10.9873Z" />

  </symbol>
  <symbol id="poll" viewBox="0 0 24 24">
    <path fill-rule="evenodd" clip-rule="evenodd" d="M4.42857 3H6.57143C7.36041 3 8 3.89543 8 5V19C8 20.1046 7.36041 21 6.57143 21H4.42857C3.63959 21 3 20.1046 3 19V5C3 3.89543 3.63959 3 4.42857 3ZM11.4286 9H13.5714C14.3604 9 15 9.59695 15 10.3333V19.6667C15 20.403 14.3604 21 13.5714 21H11.4286C10.6396 21 10 20.403 10 19.6667V10.3333C10 9.59695 10.6396 9 11.4286 9ZM20.5714 5H18.4286C17.6396 5 17 5.79594 17 6.77778V19.2222C17 20.2041 17.6396 21 18.4286 21H20.5714C21.3604 21 22 20.2041 22 19.2222V6.77778C22 5.79594 21.3604 5 20.5714 5Z" />

  </symbol>
  <symbol id="search" viewBox="0 0 25 25">
    <path fill-rule="evenodd" clip-rule="evenodd" d="M18.4471 15.8022L23.7185 21.1224C24.4272 21.8377 24.4246 22.9912 23.7126 23.7032C22.996 24.4198 21.8332 24.4171 21.1199 23.6972L15.8821 18.4109L15.7085 18.5346C14.0465 19.5733 12.3139 20.0952 10.5176 20.0952C7.89109 20.0952 5.63962 19.1527 3.78493 17.2772C1.93128 15.4027 1 13.1425 1 10.5176C1 7.89199 1.93175 5.64113 3.78644 3.78644C5.64113 1.93175 7.89199 1 10.5176 1C13.1431 1 15.394 1.93175 17.2487 3.78644C19.1034 5.64113 20.0351 7.89199 20.0351 10.5176C20.0351 12.3504 19.5351 14.0614 18.5382 15.6427L18.4471 15.8022ZM14.7531 6.26714C13.5894 5.09832 12.1852 4.51756 10.5213 4.51756C8.85746 4.51756 7.45323 5.09832 6.28952 6.26714C5.12581 7.43597 4.5476 8.84638 4.5476 10.5176C4.5476 12.1887 5.12581 13.5991 6.28952 14.768C7.45323 15.9368 8.85746 16.5176 10.5213 16.5176C12.1852 16.5176 13.5894 15.9368 14.7531 14.768C15.9527 13.5631 16.5476 12.1523 16.5476 10.5176C16.5476 8.88283 15.9527 7.47203 14.7531 6.26714Z" />
    <path d="M18.4471 15.8022L18.013 15.5541C17.9015 15.7491 17.9338 15.9945 18.0919 16.1541L18.4471 15.8022ZM15.8821 18.4109L16.2373 18.059C16.0648 17.8849 15.7917 17.8615 15.5921 18.0037L15.8821 18.4109ZM15.7085 18.5346L15.9735 18.9586C15.982 18.9533 15.9904 18.9477 15.9985 18.9419L15.7085 18.5346ZM3.78493 17.2772L4.14045 16.9256L3.78493 17.2772ZM18.5382 15.6427L18.1153 15.376C18.1114 15.3821 18.1077 15.3883 18.1041 15.3946L18.5382 15.6427ZM21.1199 23.6972L20.7647 24.0491L21.1199 23.6972ZM23.7185 21.1224L24.0737 20.7705L23.7185 21.1224ZM14.7531 6.26714L14.3988 6.61992L14.7531 6.26714ZM14.7531 14.768L14.3988 14.4152L14.7531 14.768ZM18.0919 16.1541L23.3634 21.4743L24.0737 20.7705L18.8023 15.4502L18.0919 16.1541ZM21.4751 23.3453L16.2373 18.059L15.527 18.7628L20.7647 24.0491L21.4751 23.3453ZM15.5921 18.0037L15.4184 18.1274L15.9985 18.9419L16.1722 18.8182L15.5921 18.0037ZM15.4435 18.1106C13.8532 19.1045 12.2115 19.5952 10.5176 19.5952V20.5952C12.4164 20.5952 14.2398 20.0422 15.9735 18.9586L15.4435 18.1106ZM10.5176 19.5952C8.02533 19.5952 5.90169 18.7066 4.14045 16.9256L3.4294 17.6288C5.37755 19.5988 7.75685 20.5952 10.5176 20.5952V19.5952ZM4.14045 16.9256C2.3789 15.1443 1.5 13.0102 1.5 10.5176H0.5C0.5 13.2748 1.48365 15.6612 3.4294 17.6288L4.14045 16.9256ZM1.5 10.5176C1.5 8.02445 2.37919 5.9008 4.13999 4.13999L3.43289 3.43289C1.48432 5.38145 0.5 7.75954 0.5 10.5176H1.5ZM4.13999 4.13999C5.9008 2.37919 8.02445 1.5 10.5176 1.5V0.5C7.75954 0.5 5.38145 1.48432 3.43289 3.43289L4.13999 4.13999ZM10.5176 1.5C13.0107 1.5 15.1343 2.37919 16.8951 4.13999L17.6022 3.43289C15.6537 1.48432 13.2756 0.5 10.5176 0.5V1.5ZM16.8951 4.13999C18.6559 5.9008 19.5351 8.02445 19.5351 10.5176H20.5351C20.5351 7.75954 19.5508 5.38145 17.6022 3.43289L16.8951 4.13999ZM19.5351 10.5176C19.5351 12.254 19.063 13.8728 18.1153 15.376L18.9612 15.9093C20.0073 14.25 20.5351 12.4468 20.5351 10.5176H19.5351ZM18.1041 15.3946L18.013 15.5541L18.8812 16.0502L18.9723 15.8907L18.1041 15.3946ZM23.359 23.3496C22.8383 23.8704 21.9934 23.8684 21.4751 23.3453L20.7647 24.0491C21.6731 24.9658 23.1536 24.9693 24.0661 24.0567L23.359 23.3496ZM23.3634 21.4743C23.8783 21.9941 23.8764 22.8323 23.359 23.3496L24.0661 24.0567C24.9727 23.1501 24.9761 21.6813 24.0737 20.7705L23.3634 21.4743ZM15.1074 5.91437C13.849 4.65041 12.3169 4.01756 10.5213 4.01756V5.01756C12.0534 5.01756 13.3298 5.54622 14.3988 6.61992L15.1074 5.91437ZM10.5213 4.01756C8.72572 4.01756 7.19361 4.65041 5.93519 5.91437L6.64385 6.61992C7.71284 5.54622 8.98919 5.01756 10.5213 5.01756V4.01756ZM5.93519 5.91437C4.67686 7.17824 4.0476 8.71606 4.0476 10.5176H5.0476C5.0476 8.97671 5.57477 7.69371 6.64385 6.61992L5.93519 5.91437ZM4.0476 10.5176C4.0476 12.3191 4.67686 13.8569 5.93519 15.1207L6.64385 14.4152C5.57477 13.3414 5.0476 12.0584 5.0476 10.5176H4.0476ZM5.93519 15.1207C7.19361 16.3847 8.72572 17.0176 10.5213 17.0176V16.0176C8.98919 16.0176 7.71284 15.4889 6.64385 14.4152L5.93519 15.1207ZM10.5213 17.0176C12.3169 17.0176 13.849 16.3847 15.1074 15.1207L14.3988 14.4152C13.3298 15.4889 12.0534 16.0176 10.5213 16.0176V17.0176ZM15.1074 15.1207C16.3963 13.8262 17.0476 12.2901 17.0476 10.5176H16.0476C16.0476 12.0145 15.5091 13.3 14.3988 14.4152L15.1074 15.1207ZM17.0476 10.5176C17.0476 8.74504 16.3963 7.20895 15.1074 5.91437L14.3988 6.61992C15.5091 7.73512 16.0476 9.02062 16.0476 10.5176H17.0476Z" fill="white" />

  </symbol>
  <symbol id="send" viewBox="0 0 24 24">
    <path fill-rule="evenodd" clip-rule="evenodd" d="M1.34823 10.1655L5.73089 14.5439C6.16056 14.9778 6.85233 15.0122 7.32497 14.6212L19.0421 4.95787L9.37881 16.675C8.9878 17.1477 9.02218 17.8394 9.45615 18.2691L13.8345 22.6518C14.4489 23.2662 15.4973 23.0342 15.7938 22.2178L22.9264 2.59467C23.2701 1.64939 22.3506 0.72989 21.4053 1.07363L1.7822 8.21048C0.965823 8.50696 0.733799 9.55106 1.34823 10.1655Z" />

  </symbol>
  <symbol id="setting" viewBox="0 0 24 24">
    <path fill-rule="evenodd" clip-rule="evenodd" d="M12.2546 15.8261C10.0926 15.8261 8.33969 14.113 8.33969 12C8.33969 9.88704 10.0926 8.17391 12.2546 8.17391C14.4166 8.17391 16.1695 9.88704 16.1695 12C16.1695 14.113 14.4166 15.8261 12.2546 15.8261ZM23.4893 8.12083C23.5569 7.743 23.4619 7.36278 23.2231 7.05239L20.8326 3.93557C20.3383 3.2923 19.3723 3.14117 18.6902 3.59122L17.6439 4.26126C17.087 3.92648 16.4851 3.64096 15.8597 3.41474V2.19565C15.8597 2.05217 15.825 1.91061 15.7579 1.78148C15.4633 1.21139 15.1012 1 14.422 1H10.3015C9.7148 1 9.19852 1.33287 9.05465 1.43522C8.7992 1.616 8.64945 1.89722 8.64945 2.19565V3.42287C8.0402 3.65339 7.4559 3.94561 6.88482 4.30622L5.77201 3.57209C5.43435 3.35209 5.02965 3.26743 4.62494 3.33296C4.22171 3.39943 3.86937 3.60939 3.63105 3.92504L1.27673 7.05957C0.790306 7.7057 0.961582 8.60196 1.66137 9.05822L2.82703 9.81435C2.65967 10.4853 2.57501 11.1731 2.57501 11.8675C2.57501 12.6026 2.67386 13.3367 2.86814 14.058L1.8625 14.7232C1.52582 14.9456 1.30267 15.2766 1.23416 15.6549C1.16614 16.0327 1.26009 16.4124 1.49988 16.7247L3.88992 19.8406C4.12922 20.1529 4.48548 20.3595 4.89262 20.4236C5.29831 20.4848 5.70839 20.3997 6.05877 20.1682L7.0189 19.5111C7.56454 19.8492 8.0955 20.1123 8.64945 20.3184V21.4748C8.64945 22.2587 9.45201 23 10.3015 23H14.422C15.2416 23 15.8597 22.3443 15.8597 21.4748V20.3198C16.489 20.0922 17.0929 19.8052 17.6513 19.469L18.5546 20.0453C18.8938 20.2658 19.3068 20.35 19.7188 20.2835C20.1294 20.2165 20.4856 20.0066 20.7205 19.6943L23.0895 16.5578C23.5784 15.9093 23.4091 15.0135 22.7132 14.5606L21.8686 14.0106C22.0536 13.3061 22.1475 12.5878 22.1475 11.8675C22.1475 11.143 22.0526 10.4208 21.8652 9.71248L22.862 9.05343C23.1987 8.83056 23.4208 8.49961 23.4893 8.12083Z" />

  </symbol>
  <symbol id="share" viewBox="0 0 24 24">
    <path fill-rule="evenodd" clip-rule="evenodd" d="M23.2368 11.5917C23.6518 11.1974 23.6518 10.5359 23.2368 10.1417L16.3554 3.60431C15.7184 2.99918 14.6667 3.45071 14.6667 4.32931V7.06667C5.33333 8.33333 1.33333 14.6667 0 21C3.33333 16.5667 8 14.54 14.6667 14.54V17.404C14.6667 18.2826 15.7184 18.7342 16.3554 18.129L23.2368 11.5917Z" />
    <mask id="mask0_0_2856" style="mask-type:alpha" maskUnits="userSpaceOnUse" x="0" y="3" width="24" height="18">
      <path fill-rule="evenodd" clip-rule="evenodd" d="M23.2368 11.5917C23.6518 11.1974 23.6518 10.5359 23.2368 10.1417L16.3554 3.60431C15.7184 2.99918 14.6667 3.45071 14.6667 4.32931V7.06667C5.33333 8.33333 1.33333 14.6667 0 21C3.33333 16.5667 8 14.54 14.6667 14.54V17.404C14.6667 18.2826 15.7184 18.7342 16.3554 18.129L23.2368 11.5917Z" fill="white" />
    </mask>
    <g mask="url(#mask0_0_2856)"></g>

  </symbol>
  <symbol id="show" viewBox="0 0 24 24">
    <path fill-rule="evenodd" clip-rule="evenodd" d="M1.09678 11.5901C1.22563 11.3323 1.46747 10.9024 1.81981 10.3569C2.40296 9.45391 3.09103 8.55152 3.88334 7.70639C6.18953 5.24645 8.90185 3.75 12 3.75C15.0982 3.75 17.8105 5.24645 20.1167 7.70639C20.909 8.55152 21.597 9.45391 22.1802 10.3569C22.5325 10.9024 22.7744 11.3323 22.9032 11.5901C23.0323 11.8481 23.0323 12.1519 22.9032 12.4099C22.7744 12.6677 22.5325 13.0976 22.1802 13.6431C21.597 14.5461 20.909 15.4485 20.1167 16.2936C17.8105 18.7535 15.0982 20.25 12 20.25C8.90185 20.25 6.18953 18.7535 3.88334 16.2936C3.09103 15.4485 2.40296 14.5461 1.81981 13.6431C1.46747 13.0976 1.22563 12.6677 1.09678 12.4099C0.967742 12.1519 0.967742 11.8481 1.09678 11.5901ZM8.33333 12C8.33333 14.025 9.97496 15.6667 12 15.6667C14.025 15.6667 15.6667 14.025 15.6667 12C15.6667 9.97496 14.025 8.33333 12 8.33333C9.97496 8.33333 8.33333 9.97496 8.33333 12ZM13.8333 12C13.8333 13.0125 13.0125 13.8333 12 13.8333C10.9875 13.8333 10.1667 13.0125 10.1667 12C10.1667 10.9875 10.9875 10.1667 12 10.1667C13.0125 10.1667 13.8333 10.9875 13.8333 12Z" />

  </symbol>
  <symbol id="smile" viewBox="0 0 24 24">
    <path fill-rule="evenodd" clip-rule="evenodd" d="M12 23C5.92487 23 1 18.0751 1 12C1 5.92487 5.92487 1 12 1C18.0751 1 23 5.92487 23 12C23 18.0751 18.0751 23 12 23ZM8.5 12C9.32843 12 10 11.3284 10 10.5C10 9.67157 9.32843 9 8.5 9C7.67157 9 7 9.67157 7 10.5C7 11.3284 7.67157 12 8.5 12ZM15.5 12C16.3284 12 17 11.3284 17 10.5C17 9.67157 16.3284 9 15.5 9C14.6716 9 14 9.67157 14 10.5C14 11.3284 14.6716 12 15.5 12ZM7.4617 15C7.11861 15 6.88865 15.3335 7.04373 15.6395C7.61623 16.7692 9.1123 19 12 19C14.8876 19 16.3837 16.7692 16.9562 15.6395C17.1113 15.3335 16.8813 15 16.5382 15H7.4617Z" />

  </symbol>
  <symbol id="sparkle" viewBox="0 0 24 25">
    <path fill-rule="evenodd" clip-rule="evenodd" d="M14.0146 6.53378C11.0473 5.91175 8.72807 3.59249 8.10613 0.625195C8.02973 0.26094 7.70845 0 7.33617 0C6.96388 0 6.64261 0.26094 6.56626 0.625243C5.94426 3.59249 3.62501 5.9117 0.657762 6.53364C0.293459 6.60999 0.0324707 6.93131 0.0324707 7.30355C0.0324707 7.67579 0.293411 7.99712 0.657762 8.07347C3.62496 8.69551 5.94412 11.0147 6.56611 13.982C6.64246 14.3463 6.96374 14.6073 7.33602 14.6073C7.70826 14.6073 8.02959 14.3463 8.10594 13.982C8.72798 11.0147 11.0473 8.69551 14.0145 8.07361C14.3788 7.99726 14.6398 7.67598 14.6398 7.3037C14.6398 6.93146 14.3788 6.61014 14.0146 6.53378ZM12.7142 19.5291C11.3162 19.2361 10.2234 18.1434 9.93032 16.7453C9.85397 16.381 9.53269 16.12 9.16041 16.12C8.78817 16.12 8.46685 16.3809 8.39049 16.7452C8.09738 18.1433 7.00461 19.236 5.60659 19.5291C5.24229 19.6054 4.9813 19.9267 4.9813 20.299C4.9813 20.6712 5.24224 20.9925 5.60659 21.0689C7.00457 21.362 8.09733 22.4547 8.3904 23.8528C8.46675 24.2171 8.78802 24.4781 9.16031 24.4781C9.53255 24.4781 9.85387 24.2172 9.93022 23.8528C10.2233 22.4547 11.3161 21.362 12.7142 21.0689C13.0785 20.9926 13.3395 20.6713 13.3395 20.299C13.3395 19.9268 13.0785 19.6055 12.7142 19.5291ZM19.5796 8.48271C19.9757 10.3724 21.4526 11.8494 23.3423 12.2455C23.7066 12.3218 23.9675 12.6432 23.9675 13.0154C23.9675 13.3876 23.7066 13.7089 23.3423 13.7853C21.4526 14.1814 19.9757 15.6583 19.5795 17.548C19.5031 17.9124 19.1818 18.1733 18.8096 18.1733C18.4373 18.1733 18.116 17.9123 18.0396 17.548C17.6435 15.6583 16.1666 14.1814 14.2769 13.7852C13.9126 13.7088 13.6517 13.3876 13.6517 13.0153C13.6517 12.6431 13.9126 12.3218 14.2769 12.2454C16.1666 11.8493 17.6436 10.3724 18.0397 8.48266C18.1161 8.11831 18.4374 7.85742 18.8097 7.85742C19.1819 7.85742 19.5032 8.11841 19.5796 8.48271Z" />

  </symbol>
  <symbol id="star" viewBox="0 0 24 24">
    <path fill-rule="evenodd" clip-rule="evenodd" d="M12 19.2L4.94658 21.7082L5.15239 14.2249L0.587322 8.2918L7.76795 6.17508L12 0L16.2321 6.17508L23.4127 8.2918L18.8476 14.2249L19.0534 21.7082L12 19.2Z" />

  </symbol>
  <symbol id="swim" viewBox="0 0 24 24">
    <path fill-rule="evenodd" clip-rule="evenodd" d="M17.5034 9.22917C18.5016 8.27574 18.5385 6.69266 17.5846 5.69449C16.6313 4.69521 15.0489 4.65885 14.0507 5.61185C13.0515 6.56529 13.0152 8.14781 13.9681 9.1461C14.9219 10.1453 16.5042 10.1822 17.5034 9.22917ZM3.80644 10.8708L7.42127 9.10944L9.23738 9.81035L3.2751 15.4305L3.30769 15.4637C5.09778 14.361 7.42477 14.5141 9.01915 15.9204C9.73206 15.2914 10.6277 14.9327 11.5564 14.8153L13.3725 13.1039L14.3779 14.4226C14.5796 14.687 14.8942 14.8396 15.2254 14.8396C15.3083 14.8396 19.1571 14.4032 20.1211 14.2939L20.1218 14.2938L20.3367 14.2695C20.9187 14.204 21.3356 13.6849 21.2699 13.1103C21.2037 12.5352 20.6799 12.1226 20.0959 12.19L15.7075 12.6848L13.8768 10.2829C13.836 10.2293 13.8061 10.1896 13.7822 10.1578C13.6987 10.0468 13.6886 10.0333 13.5446 9.86926L12.9602 9.26494C12.8368 9.13711 12.4048 8.78449 12.2071 8.70773L7.75796 6.99085C7.4815 6.88587 7.16989 6.89828 6.90257 7.02747L2.86836 8.99155C2.34309 9.24814 2.1273 9.87568 2.38625 10.3944C2.64356 10.9089 3.2751 11.1274 3.80644 10.8708ZM22.6738 17.1579C22.9649 16.7678 23.438 16.7687 23.7305 17.157C24.0223 17.5442 24.0227 18.1725 23.7312 18.5607C22.8215 19.7696 21.2342 19.7715 20.3234 18.5617C19.9773 18.102 19.3758 18.102 19.0301 18.5617C18.1197 19.7731 16.532 19.7716 15.6215 18.5602C15.2858 18.1148 14.6828 18.1074 14.3405 18.5459L14.3275 18.5636C13.3873 19.8091 11.8605 19.8096 10.9226 18.5631C10.565 18.0882 9.98469 18.0867 9.62747 18.5617C8.68102 19.8195 7.13905 19.783 6.24825 18.5987C5.91778 18.1607 5.3423 18.1607 5.01142 18.5997C4.53398 19.2345 3.89796 19.5847 3.22138 19.5847C2.54527 19.5847 1.90957 19.2345 1.4313 18.5992C1.13986 18.2115 1.13986 17.5826 1.43171 17.195C1.72353 16.8082 2.19694 16.8077 2.4888 17.1954C2.87944 17.7153 3.56337 17.7153 3.95402 17.1954C4.85028 16.0057 6.41058 16.0062 7.30537 17.195C7.63362 17.6325 8.21358 17.6305 8.53993 17.1969C9.5091 15.9101 11.0374 15.909 11.9778 17.157C12.3314 17.6266 12.9021 17.6305 13.2585 17.1742L13.2727 17.1565C14.1831 15.9481 15.7686 15.9481 16.6787 17.1565C17.0258 17.6183 17.627 17.6172 17.9723 17.1585C18.8816 15.9481 20.4697 15.9481 21.3805 17.1574C21.7266 17.6162 22.3292 17.6167 22.6738 17.1579Z" />

  </symbol>
  <symbol id="time" viewBox="0 0 24 24">
    <rect width="24" height="24" fill="white" />
    <path fill-rule="evenodd" clip-rule="evenodd" d="M12 0C18.6171 0 24 5.38293 24 12C24 18.6171 18.6171 24 12 24C5.38293 24 0 18.6171 0 12C0 5.38293 5.38293 0 12 0ZM12 2.00006C6.48596 2.00006 2.00006 6.48596 2.00006 12C2.00006 17.514 6.48596 21.9999 12 21.9999C17.514 21.9999 21.9999 17.514 21.9999 12C21.9999 6.48596 17.514 2.00006 12 2.00006ZM12 4C16.4183 4 20 7.58172 20 12C20 16.4183 16.4183 20 12 20C7.58172 20 4 16.4183 4 12H12V4Z" />

  </symbol>
  <symbol id="user" viewBox="0 0 24 24">
    <path fill-rule="evenodd" clip-rule="evenodd" d="M8.25 7.25C8.25 9.59721 10.1528 11.5 12.5 11.5C14.8472 11.5 16.75 9.59721 16.75 7.25C16.75 4.90279 14.8472 3 12.5 3C10.1528 3 8.25 4.90279 8.25 7.25ZM20.142 20C20.611 20 20.9912 19.6194 20.9912 19.15C20.9912 19.15 21.2742 13.2 12.5 13.2C3.72581 13.2 4.00884 19.15 4.00884 19.15C4.00884 19.6194 4.38901 20 4.85796 20H20.142Z" />

  </symbol>
  <symbol id="walk" viewBox="0 0 24 24">
    <path fill-rule="evenodd" clip-rule="evenodd" d="M14.3646 2.22462C14.3646 3.45324 15.3606 4.44923 16.5892 4.44923C17.8178 4.44923 18.8138 3.45324 18.8138 2.22462C18.8138 0.995994 17.8178 0 16.5892 0C15.3606 0 14.3646 0.995994 14.3646 2.22462ZM8.79706 11.3428C8.28753 12.2128 5.25614 17.3668 2.60506 21.3235C1.51722 22.7229 3.6906 24.3951 4.77706 22.9985C5.82157 21.6555 6.86655 19.8005 7.91163 17.9452C8.64769 16.6386 9.3838 15.3318 10.1198 14.2038C10.2269 14.4688 10.4198 14.7092 10.7263 14.8837C12.0283 15.624 13.1678 16.6154 14.1343 17.7549C13.9027 18.6721 13.671 19.5889 13.4393 20.5055C13.2854 21.1144 13.1315 21.7232 12.9777 22.332C12.5443 24.0489 15.2448 24.5335 15.6744 22.8277C16.0797 21.2271 16.484 19.6274 16.8888 18.0249C16.9243 17.8846 16.9321 17.7554 16.9284 17.6308C17.0272 17.2971 16.9769 16.9177 16.6834 16.5489C15.6315 15.2266 14.4311 14.0806 13.0571 13.1331C13.682 11.9183 14.3341 10.7202 15.002 9.52938C16.1046 11.0566 17.5589 12.2169 19.5837 12.8095C21.194 13.2803 21.8771 10.7755 20.2737 10.3066C18.2254 9.70662 17.0046 8.26892 16.1544 6.42785C15.8877 5.14615 14.414 4.25908 13.1568 4.59554C13.1417 4.59554 13.1273 4.59471 13.1129 4.59387C13.0902 4.59256 13.0676 4.59125 13.0428 4.59323C11.4981 4.71284 9.95352 4.83285 8.40853 4.95288L8.05352 4.98046C6.81908 5.07632 6.1119 6.77498 5.57085 8.07461C5.42674 8.42076 5.29442 8.7386 5.16706 8.99031C4.41245 10.4802 6.65137 11.7946 7.40783 10.3006C7.60587 9.90979 7.80367 9.51879 8.00149 9.12774C8.273 8.59103 8.54457 8.05421 8.81691 7.51754C8.97291 7.50544 9.12904 7.49334 9.28523 7.48124C9.81433 7.44024 10.3442 7.39918 10.8731 7.35785C10.2269 8.51677 9.59368 9.68354 8.98814 10.8637C8.90414 11.0248 8.84322 11.1849 8.79706 11.3428Z" />

  </symbol>
  <symbol id="water" viewBox="0 0 24 24">
    <path fill-rule="evenodd" clip-rule="evenodd" d="M12.7494 0.826981C12.0811 -0.294918 11.3735 -0.256232 10.7052 0.826981C7.63882 5.31458 3 12.046 3 15.4117C3 17.7715 3.9828 19.938 5.55528 21.4854C7.12776 23.0328 9.32924 24 11.7273 24C14.1253 24 16.3268 23.0328 17.8993 21.4854C19.4717 19.938 20.4545 17.7715 20.4545 15.4117C20.4545 12.0073 15.8157 5.31458 12.7494 0.826981ZM16.2291 18.0016C15.5822 19.0721 14.6523 20.0191 13.5203 20.6779C12.9947 20.9661 12.3479 20.8014 12.0649 20.2661C11.7414 19.6897 11.9436 19.0309 12.4691 18.7427C13.2777 18.2898 13.9246 17.6311 14.4097 16.8488C14.8949 16.0665 15.1779 15.1607 15.2183 14.2137C15.2588 13.5961 15.7439 13.1432 16.3504 13.1844C16.9568 13.2256 17.4015 13.7197 17.3611 14.3373C17.2802 15.6548 16.8759 16.89 16.2291 18.0016Z" />

  </symbol>
  <symbol id="weight" viewBox="0 0 24 24">
    <path fill-rule="evenodd" clip-rule="evenodd" d="M19.7386 1H4.26137C2.46321 1 1 2.46321 1 4.26137V19.7386C1 21.5368 2.46321 23 4.26137 23H19.7386C21.5368 23 23 21.5368 23 19.7386V4.26137C23 2.46321 21.5368 1 19.7386 1ZM19.2929 11.1633H13.0808V6.1683H11.2121V11.1633H5V11.1464C5 7.19978 8.19978 4 12.1464 4C16.0931 4 19.2929 7.19978 19.2929 11.1464V11.1633Z" />

  </symbol>
</svg>
